<svg width="86" height="86" viewBox="0 0 86 86" fill="none" xmlns="http://www.w3.org/2000/svg">
<path d="M51.2623 25.8285C51.3639 25.5624 51.3992 25.2756 51.3653 24.9927C51.3313 24.7099 51.2291 24.4395 51.0675 24.205C50.9058 23.9704 50.6896 23.7787 50.4373 23.6463C50.1851 23.5139 49.9044 23.4449 49.6196 23.4451H38.1977C37.795 23.4454 37.4045 23.5838 37.0915 23.8372C36.7785 24.0906 36.5618 24.4437 36.4777 24.8375L31.5444 48.0642C31.49 48.3199 31.4932 48.5845 31.5539 48.8387C31.6147 49.0929 31.7314 49.3304 31.8955 49.5338C32.0597 49.7372 32.2671 49.9014 32.5028 50.0145C32.7384 50.1275 32.9963 50.1866 33.2577 50.1874H40.7155C40.9747 50.1874 41.2306 50.2447 41.465 50.3551C41.6994 50.4656 41.9065 50.6265 42.0714 50.8263C42.2364 51.0261 42.3552 51.2599 42.4193 51.5109C42.4834 51.762 42.4913 52.0241 42.4423 52.2786L40.5946 61.8528C40.2587 63.6014 42.6253 64.4798 43.5105 62.9362L55.2616 42.4608C55.415 42.1934 55.4954 41.8904 55.4948 41.5821C55.4942 41.2739 55.4126 40.9712 55.2581 40.7044C55.1036 40.4376 54.8817 40.2162 54.6146 40.0622C54.3476 39.9082 54.0447 39.8271 53.7365 39.8271H48.4925C48.2076 39.8271 47.927 39.758 47.6747 39.6257C47.4225 39.4933 47.2062 39.3016 47.0444 39.0671C46.8826 38.8326 46.7802 38.5624 46.746 38.2796C46.7118 37.9968 46.7469 37.7099 46.8481 37.4436L51.2623 25.8285Z" fill="black"/>
<path d="M67.8843 67.8896C72.6437 63.0269 75.9013 56.8958 77.2671 50.2299C78.6329 43.5641 78.0491 36.6459 75.5856 30.3032C68.5142 12.129 47.9733 3.09566 29.7974 10.1688L30.8942 12.9873C47.5231 6.51887 66.3003 14.7779 72.7688 31.4001C75.0218 37.2025 75.5546 43.5313 74.3035 49.6287C73.0523 55.7261 70.0701 61.3337 65.7141 65.7799L63.5641 63.6853C63.3378 63.4646 63.0511 63.3159 62.7403 63.2582C62.4294 63.2005 62.1085 63.2363 61.818 63.3611C61.5275 63.486 61.2806 63.6942 61.1086 63.9594C60.9365 64.2246 60.847 64.5349 60.8514 64.8511L60.9321 70.5435C60.9382 70.9663 61.1118 71.3694 61.4147 71.6644C61.7176 71.9594 62.1251 72.1223 62.5479 72.1174L68.2404 72.0502C68.5564 72.0463 68.8641 71.9488 69.1246 71.7699C69.3852 71.5911 69.5868 71.339 69.704 71.0456C69.8213 70.7521 69.8488 70.4305 69.7832 70.1213C69.7177 69.8122 69.5618 69.5295 69.3355 69.3089L67.8843 67.8896Z" fill="black"/>
<path d="M30.545 72.3946C25.7535 70.2913 21.5444 67.0563 18.2791 62.9674C15.0137 58.8784 12.7899 54.0579 11.7987 48.9199C10.8074 43.7819 11.0784 38.4801 12.5882 33.4699C14.0981 28.4598 16.8017 23.891 20.4669 20.1563L22.3716 22.004C22.5979 22.2247 22.8846 22.3734 23.1955 22.4311C23.5063 22.4888 23.8273 22.453 24.1178 22.3282C24.4082 22.2034 24.6551 21.9951 24.8272 21.7299C24.9992 21.4647 25.0887 21.1544 25.0843 20.8383L25.0037 15.1458C25.0011 14.9363 24.9572 14.7294 24.8745 14.5369C24.7919 14.3444 24.6721 14.1701 24.522 14.0239C24.3719 13.8777 24.1945 13.7626 23.9999 13.685C23.8053 13.6075 23.5973 13.569 23.3878 13.5719L17.6954 13.6391C17.3768 13.64 17.0658 13.7361 16.8023 13.915C16.5388 14.094 16.3348 14.3476 16.2165 14.6434C16.0983 14.9392 16.0711 15.2635 16.1386 15.5748C16.2061 15.8862 16.3651 16.1702 16.5952 16.3904L18.2967 18.0483C12.6285 23.8216 9.11148 31.364 8.33236 39.4172C7.55325 47.4703 9.55918 55.547 14.0155 62.2999C18.4718 69.0527 25.109 74.0732 32.8196 76.5238C40.5303 78.9744 48.8481 78.7068 56.3853 75.7657L55.2901 72.9489C51.3337 74.4971 47.1095 75.2452 42.862 75.1501C38.6146 75.0549 34.4281 74.1184 30.545 72.3946Z" fill="black"/>
</svg>
