<svg width="85" height="85" viewBox="0 0 85 85" fill="none" xmlns="http://www.w3.org/2000/svg">
<path d="M20.0279 70.2445L10.9834 56.6312C10.8769 56.4702 10.8035 56.2897 10.7672 56.1001C10.731 55.9105 10.7326 55.7156 10.7722 55.5266C10.8117 55.3377 10.8882 55.1584 10.9974 54.9992C11.1066 54.8401 11.2463 54.7041 11.4084 54.5992L17.106 50.8937C17.427 50.688 17.8151 50.6145 18.1891 50.6888C18.563 50.7631 18.8936 50.9793 19.1115 51.2922L28.4084 64.6531C28.5188 64.8122 28.5965 64.9917 28.6369 65.1811C28.6773 65.3705 28.6797 65.5661 28.6438 65.7564C28.608 65.9467 28.5346 66.128 28.4281 66.2897C28.3216 66.4514 28.1839 66.5904 28.0232 66.6984L22.1263 70.6828C21.9623 70.7994 21.7759 70.8808 21.5788 70.922C21.3818 70.9632 21.1784 70.9632 20.9814 70.922C20.7844 70.8809 20.598 70.7994 20.4339 70.6829C20.2698 70.5663 20.1316 70.417 20.0279 70.2445Z" stroke="black" stroke-width="2.8125" stroke-linecap="round"/>
<path d="M20.1343 52.7133L29.6569 46.7235C29.9626 46.5326 30.3039 46.4059 30.6601 46.3511C31.0163 46.2963 31.3799 46.3145 31.7288 46.4047C35.1022 47.268 45.2757 50.0704 48.9944 51.3719C51.8233 52.368 52.9788 55.1438 51.8233 56.9899C50.2827 59.4602 47.9452 59.1813 46.2585 58.7164C46.0321 58.6462 45.8103 58.5619 45.5944 58.4641L38.9538 55.6352" stroke="black" stroke-width="2.8125" stroke-linecap="round"/>
<path d="M27.5186 63.511L30.6264 61.7313L48.2373 66.5524C48.4186 66.6013 48.6083 66.6112 48.7937 66.5815C48.9792 66.5517 49.1562 66.4829 49.3131 66.3797C51.7967 64.786 62.4217 57.7602 67.6545 54.0547C68.0875 53.8227 68.455 53.4853 68.7231 53.0737C68.9911 52.6621 69.1511 52.1895 69.1882 51.6997C69.2252 51.2099 69.1382 50.7186 68.9351 50.2713C68.7321 49.824 68.4195 49.4352 68.0264 49.1407C67.4154 48.5947 66.6443 48.2609 65.8281 48.1891C65.0119 48.1172 64.1943 48.3113 63.4975 48.7422C61.6514 49.7649 56.5646 53.55 56.5646 53.55" stroke="black" stroke-width="2.8125" stroke-linecap="round"/>
<path d="M50.5884 44.4125C60.1239 44.4125 67.854 36.6824 67.854 27.1469C67.854 17.6113 60.1239 9.88123 50.5884 9.88123C41.0528 9.88123 33.3228 17.6113 33.3228 27.1469C33.3228 36.6824 41.0528 44.4125 50.5884 44.4125Z" stroke="black" stroke-width="2.8125" stroke-linecap="round"/>
<path d="M44.9038 18.3945H47.6663C50.3226 18.3945 53.3241 19.2844 53.3241 23.3883C53.3241 27.8375 49.5522 29.5375 45.5546 29.0859C45.5077 29.0801 45.4603 29.0892 45.4188 29.1118C45.3774 29.1343 45.344 29.1693 45.3235 29.2119C45.303 29.2544 45.2963 29.3022 45.3044 29.3487C45.3125 29.3952 45.335 29.438 45.3687 29.4711L53.8687 38.6219" stroke="black" stroke-width="2.8125" stroke-linecap="round"/>
<path d="M56.5783 18.3945H47.0557" stroke="black" stroke-width="2.8125" stroke-linecap="round"/>
<path d="M45.0498 23.5344H56.6443" stroke="black" stroke-width="2.8125" stroke-linecap="round"/>
</svg>
